PathFileType	4	(X/Y/Z)	C:/Users/opensim2020/Desktop/walking_exp_matlab/subject02_walking05_straight_01.trc	
DataRate	CameraRate	NumFrames	NumMarkers	Units	OrigDataRate	OrigDataStartFrame	OrigNumFrames	
100.00	100.00	6	42	mm	100.00	697	190	
Frame#	Time	LFHD			RFHD			LBHD			RBHD			C7			T10			CLAV			STRN			RBAK			LSHO			LUPA			LELB			LFRM			LWRA			LWRB			LFIN			RSHO			RUPA			RELB			RFRM			RWRA			RWRB			RFIN			LASI			RASI			LPSI			RPSI			LTHI			LKNE			LTIB			LANK			LHEE			LTOE			RTHI			RKNE			RTIB			RANK			RHEE			RTOE			*39			*40			*41			
		X1	Y1	Z1	X2	Y2	Z2	X3	Y3	Z3	X4	Y4	Z4	X5	Y5	Z5	X6	Y6	Z6	X7	Y7	Z7	X8	Y8	Z8	X9	Y9	Z9	X10	Y10	Z10	X11	Y11	Z11	X12	Y12	Z12	X13	Y13	Z13	X14	Y14	Z14	X15	Y15	Z15	X16	Y16	Z16	X17	Y17	Z17	X18	Y18	Z18	X19	Y19	Z19	X20	Y20	Z20	X21	Y21	Z21	X22	Y22	Z22	X23	Y23	Z23	X24	Y24	Z24	X25	Y25	Z25	X26	Y26	Z26	X27	Y27	Z27	X28	Y28	Z28	X29	Y29	Z29	X30	Y30	Z30	X31	Y31	Z31	X32	Y32	Z32	X33	Y33	Z33	X34	Y34	Z34	X35	Y35	Z35	X36	Y36	Z36	X37	Y37	Z37	X38	Y38	Z38	X39	Y39	Z39	X40	Y40	Z40	X41	Y41	Z41	X42	Y42	Z42	

48	0.470	-1129.60376	-712.31805	1727.44263	-987.29156	-723.27075	1707.66980	-1149.31152	-841.49536	1650.98584	-1008.95526	-864.13153	1629.40344	-1069.97583	-899.32556	1510.08032	-1059.75562	-950.84344	1233.50244	-1089.07092	-759.47394	1440.37061	-1076.25171	-706.00214	1270.74634	-997.72089	-952.15375	1337.98450	-1254.20837	-840.20905	1477.58228	-1329.73315	-893.06897	1281.92432	-1337.72766	-925.02130	1147.02295	-1357.09949	-951.70892	1019.96045	-1340.93152	-927.08832	880.73169	-1366.66296	-974.49347	899.05225	-1371.65686	-978.18524	831.10297	-889.26465	-805.94788	1481.58032	-801.06506	-809.00641	1290.39148	-784.35724	-770.13007	1145.97754	-781.47137	-706.19385	1041.43774	-819.77112	-622.76123	940.00812	-784.30603	-662.53180	917.97955	-793.26978	-606.48505	871.15521	-1198.48779	-700.91266	992.09351	-946.78918	-713.60193	955.20068	-1126.76965	-917.04675	1018.25928	-1010.81134	-925.62708	1009.37323	-1263.63049	-706.30719	682.85358	-1234.21338	-704.67834	478.73260	-1238.83130	-742.55975	286.70694	-1207.05225	-723.24158	66.09200	-1158.88232	-761.15332	37.65462	-1209.58594	-565.63068	32.51620	-870.54181	-825.35223	650.74780	-874.48846	-843.91571	450.72192	-866.06445	-990.13641	338.54230	-894.94232	-1130.85645	207.76915	-953.63971	-1187.91174	197.43411	-896.00854	-1083.66846	48.43292	-1046.83411	-821.76025	1790.65173	-3360.21655	2845.07813	1033.82007			 
49	0.480	-1131.84631	-703.36450	1728.95752	-989.79932	-714.40308	1709.12805	-1151.79419	-832.40887	1652.35791	-1011.44513	-855.36737	1630.73059	-1072.89050	-890.23431	1511.59192	-1062.66760	-941.97809	1234.96716	-1091.46692	-750.52423	1441.81067	-1078.70117	-697.10968	1272.15466	-1000.63184	-944.16003	1339.72400	-1256.95361	-830.47437	1479.33215	-1332.96375	-882.49573	1283.19678	-1341.06958	-913.89435	1148.26233	-1360.51599	-940.05096	1021.13959	-1343.81299	-915.25110	881.88934	-1370.10413	-962.37488	900.17749	-1375.06702	-966.06952	832.24646	-891.93451	-797.67303	1482.80505	-803.63483	-802.33508	1291.41858	-787.21600	-764.14661	1146.92468	-783.56317	-700.90173	1041.92419	-820.59143	-617.68317	939.92419	-785.92596	-658.09448	918.12903	-794.17847	-602.68683	870.51819	-1201.28882	-692.26257	992.59082	-949.05908	-704.83392	956.81213	-1129.26147	-908.48474	1019.33038	-1013.69739	-916.75995	1010.57855	-1265.06238	-702.13586	682.36646	-1235.47192	-701.33051	478.84396	-1239.74585	-741.11597	287.20074	-1207.04932	-723.28033	66.08643	-1158.88855	-761.40942	37.75563	-1209.60120	-565.63892	32.41017	-872.49146	-810.76202	651.50177	-876.13165	-825.27612	451.48090	-868.86804	-973.05182	342.19785	-899.51703	-1115.33496	213.32990	-959.66241	-1171.40649	202.31555	-895.70685	-1069.24841	54.02686	-1049.31494	-812.96912	1792.05200	-3357.03589	2845.87915	1033.90198			 
50	0.490	-1134.07336	-694.37592	1730.42261	-991.84131	-705.88409	1710.56433	-1154.20691	-823.32477	1653.67639	-1013.80170	-846.53571	1632.07703	-1075.69971	-881.20868	1513.06079	-1065.54077	-933.18048	1236.42493	-1093.68945	-741.61139	1443.20752	-1080.96240	-688.33386	1273.42578	-1003.71594	-935.61609	1341.00647	-1259.55383	-820.67358	1480.88867	-1336.13318	-871.73322	1284.41492	-1344.36475	-902.59186	1149.21533	-1363.98157	-928.04633	1022.12891	-1346.78040	-902.88965	882.98663	-1373.67993	-949.71301	901.10040	-1378.28381	-953.29144	833.20551	-894.32416	-789.90472	1484.12256	-806.27350	-795.23029	1292.56128	-789.93298	-758.31354	1147.87891	-785.78589	-695.20734	1042.48840	-821.05994	-612.50519	939.65002	-787.48444	-653.76349	918.22858	-795.00061	-599.32007	869.91473	-1203.98584	-683.52472	993.04462	-950.91675	-696.33826	958.64276	-1131.84692	-900.00214	1020.47150	-1016.28644	-908.89063	1012.31335	-1266.42603	-698.15485	681.98633	-1236.66272	-697.79675	478.84613	-1240.63672	-739.55365	287.51453	-1207.05530	-723.31482	66.10637	-1158.81152	-761.48413	37.64790	-1209.67834	-565.57233	32.48444	-874.22693	-796.60785	652.80914	-877.64233	-807.02600	453.30252	-872.13330	-955.58154	345.60919	-904.94678	-1099.30908	218.21996	-966.22913	-1153.89771	205.53004	-895.21814	-1052.94495	59.50436	-1051.63269	-804.25000	1793.33081	-3360.14380	2845.18530	1033.85620			 
51	0.500	-1136.05334	-685.47070	1731.81250	-993.95612	-697.42316	1712.05640	-1156.49036	-814.29761	1654.99353	-1016.15100	-837.97119	1633.35632	-1078.37988	-872.20929	1514.54089	-1068.49927	-924.49048	1237.88245	-1095.84131	-732.70367	1444.55579	-1083.06409	-679.66016	1274.69104	-1006.74084	-926.46826	1342.18274	-1262.01648	-810.83142	1482.24487	-1340.08447	-860.86273	1285.81238	-1347.93677	-891.23651	1150.34485	-1367.46838	-915.63171	1022.94830	-1349.71655	-889.92938	884.01044	-1377.26904	-936.69299	901.70074	-1381.93677	-939.73700	834.03961	-896.56818	-781.48145	1485.15723	-808.64319	-787.67108	1293.54370	-792.63879	-752.53809	1148.74548	-787.58508	-690.16150	1042.63708	-821.51617	-607.53491	939.56079	-788.85120	-649.48572	918.37115	-795.73578	-595.34705	869.43768	-1206.44958	-674.97388	993.21350	-952.38257	-687.81677	960.39532	-1134.19568	-891.68890	1021.63580	-1019.08521	-900.70490	1013.78125	-1267.66772	-694.04590	681.79913	-1237.77002	-694.22186	478.77808	-1241.67126	-737.87848	287.75626	-1207.11267	-723.36237	66.11844	-1158.84546	-761.60364	37.64817	-1209.72083	-565.74829	32.41356	-875.66852	-782.21820	654.43744	-879.55310	-788.59827	455.16052	-875.81567	-938.12512	348.67081	-910.40576	-1081.95618	221.72618	-973.02240	-1135.48877	207.20053	-893.90802	-1034.98438	64.17851	-1053.87610	-795.49139	1794.63391	-3360.33301	2845.27539	1033.94556			 
52	0.510	-1138.00720	-676.52039	1733.18628	-996.37927	-688.63464	1713.02356	-1158.66211	-805.26117	1656.27405	-1018.26477	-828.89795	1634.39661	-1081.03406	-863.29999	1515.95447	-1071.41675	-915.83228	1239.36853	-1097.84937	-723.94324	1445.78442	-1085.04236	-671.12512	1275.76733	-1009.78564	-918.19983	1343.73669	-1264.51685	-800.83453	1483.69043	-1342.79907	-849.66797	1286.69543	-1351.33618	-879.47101	1151.13245	-1370.87988	-902.90430	1023.85986	-1352.94116	-875.82458	885.53906	-1380.64832	-923.06049	902.28455	-1385.72168	-925.41565	834.57147	-898.69336	-773.47119	1486.22522	-810.98553	-780.89392	1294.49829	-794.99799	-746.59955	1149.62061	-788.83777	-684.99347	1043.26672	-822.04065	-602.49005	939.55914	-790.27820	-645.19208	918.50006	-796.07214	-591.24878	869.01361	-1208.75122	-666.48645	993.36133	-953.66119	-679.72620	962.27557	-1136.66248	-883.19672	1022.59491	-1021.94073	-892.41241	1015.08557	-1268.86340	-689.27814	681.84204	-1238.83630	-690.80017	478.51929	-1242.85510	-735.92224	287.77005	-1207.17273	-723.37067	66.06870	-1158.87415	-761.51776	37.46464	-1209.69873	-565.73468	32.34832	-877.02002	-767.37360	656.04596	-881.31958	-770.56653	457.51642	-879.83929	-920.73071	351.43039	-915.91077	-1063.94653	224.05249	-979.79694	-1115.95569	207.37007	-892.35022	-1015.96948	68.35030	-1055.97314	-786.78595	1795.92664	-3360.16382	2845.18140	1033.82239			 
53	0.520	-1139.70276	-667.60907	1734.31946	-997.83466	-679.93445	1714.64709	-1160.67102	-796.28235	1657.52368	-1020.49792	-819.89136	1635.72791	-1083.54956	-854.48712	1517.31189	-1074.32373	-907.28027	1240.75854	-1099.82336	-715.15881	1446.97656	-1086.96680	-662.65564	1276.76575	-1012.90179	-909.69775	1344.93091	-1266.98169	-790.82550	1485.20447	-1346.18628	-838.44318	1287.72192	-1354.72644	-867.54401	1151.92810	-1374.40698	-889.65918	1024.21753	-1355.57690	-862.00000	886.53363	-1384.14636	-908.87396	902.90497	-1388.52759	-910.33398	834.90344	-900.60956	-765.47455	1487.41907	-813.39587	-774.65314	1295.54285	-797.34985	-741.00616	1150.58179	-790.57574	-680.13550	1043.70020	-822.48260	-597.69922	939.41187	-791.51404	-640.94965	918.64087	-796.47614	-587.32471	868.72742	-1211.02747	-658.02856	993.60779	-954.94556	-671.67352	964.24268	-1138.94128	-874.88245	1023.56061	-1024.57861	-884.44147	1016.47943	-1269.98474	-683.76489	681.96271	-1239.79919	-687.74426	478.37170	-1244.35181	-733.87213	287.84085	-1207.22400	-723.33142	66.02016	-1158.75964	-761.45703	37.08073	-1209.70898	-565.74567	32.26508	-878.22284	-753.08594	657.86298	-883.10052	-753.05920	459.82538	-884.11115	-903.43573	353.72061	-921.39966	-1045.43579	225.31221	-986.33411	-1095.79199	206.09004	-891.11627	-996.11426	71.87320	-1058.02832	-777.98096	1797.14587	-3360.09619	2845.26025	1033.65796			 
